<svg width="48" height="48" viewBox="0 0 48 48" fill="none" xmlns="http://www.w3.org/2000/svg">
<rect width="48" height="48" fill="#323238"/>
<path d="M33.75 15H14.25C13.0125 15 12 16.0125 12 17.25V32.25C12 33.4875 13.0125 34.5 14.25 34.5H33.75C34.9875 34.5 36 33.4875 36 32.25V17.25C36 16.0125 34.9875 15 33.75 15ZM21.3458 24.8992L15 29.8417V18.0847L21.3458 24.8992ZM16.134 18H31.866L24 23.9062L16.134 18V18ZM21.5925 25.1647L24 27.75L26.4075 25.1647L31.3425 31.5H16.6582L21.5933 25.1647H21.5925ZM26.6542 24.8992L33 18.0847V29.8417L26.6542 24.8992Z" fill="white"/>
</svg>
