<svg width="48" height="48" viewBox="0 0 48 48" fill="none" xmlns="http://www.w3.org/2000/svg">
<rect width="48" height="48" fill="#323238"/>
<path d="M24 12.2963C17.373 12.2963 12 17.8046 12 24.6002C12 30.0362 15.4388 34.6486 20.2065 36.2751C20.8065 36.3889 21.027 36.0082 21.027 35.6829C21.027 35.3899 21.0157 34.4202 21.0105 33.3921C17.6715 34.1365 16.9673 31.9402 16.9673 31.9402C16.4213 30.5184 15.6353 30.14 15.6353 30.14C14.5463 29.3764 15.7177 29.3918 15.7177 29.3918C16.9222 29.4787 17.5567 30.6599 17.5567 30.6599C18.627 32.5408 20.364 31.9971 21.0487 31.6826C21.156 30.8875 21.4673 30.3446 21.8108 30.037C19.1453 29.7263 16.3432 28.6705 16.3432 23.9565C16.3432 22.6131 16.812 21.5157 17.58 20.6537C17.4555 20.3438 17.0445 19.0926 17.6962 17.3978C17.6962 17.3978 18.7043 17.0671 20.997 18.6589C21.954 18.3859 22.9807 18.2498 24.0007 18.2444C25.02 18.2491 26.0475 18.3859 27.0068 18.6589C29.2973 17.0671 30.303 17.3978 30.303 17.3978C30.9562 19.0926 30.5453 20.3438 30.4208 20.6537C31.1903 21.515 31.656 22.6131 31.656 23.9565C31.656 28.682 28.8488 29.7225 26.1765 30.0277C26.607 30.4099 26.9902 31.1582 26.9902 32.3063C26.9902 33.9527 26.976 35.2777 26.976 35.6829C26.976 36.0105 27.192 36.3943 27.8002 36.2735C32.5657 34.6448 36 30.0347 36 24.6002C36 17.8046 30.627 12.2963 24 12.2963V12.2963Z" fill="white"/>
</svg>
