<svg width="48" height="48" viewBox="0 0 48 48" fill="none" xmlns="http://www.w3.org/2000/svg">
<rect width="48" height="48" fill="#323238"/>
<path d="M33.75 12H14.25C13.0125 12 12 13.0125 12 14.25V33.75C12 34.9875 13.0125 36 14.25 36H33.75C34.9875 36 36 34.9875 36 33.75V14.25C36 13.0125 34.9875 12 33.75 12ZM21 31.5H18V21H21V31.5ZM19.5 19.5C18.6705 19.5 18 18.8295 18 18C18 17.1705 18.6705 16.5 19.5 16.5C20.3295 16.5 21 17.1705 21 18C21 18.8295 20.3295 19.5 19.5 19.5ZM31.5 31.5H28.5V25.5C28.5 24.6705 27.8295 24 27 24C26.1705 24 25.5 24.6705 25.5 25.5V31.5H22.5V21H25.5V22.8607C26.1187 22.0125 27.0653 21 28.125 21C29.991 21 31.5 22.6785 31.5 24.75V31.5Z" fill="white"/>
</svg>
